<svg width="1246" height="85" viewBox="0 0 1246 85" fill="none" xmlns="http://www.w3.org/2000/svg">
<path d="M1245.67 339C1245.67 337.527 1244.47 336.333 1243 336.333C1241.53 336.333 1240.33 337.527 1240.33 339C1240.33 340.473 1241.53 341.667 1243 341.667C1244.47 341.667 1245.67 340.473 1245.67 339ZM1243 195L1243.5 195L1243.5 194.5L1243 194.5L1243 195ZM3.00001 195L2.50001 195L2.50001 195.5L3.00001 195.5L3.00001 195ZM5.66666 3.00001C5.66666 1.52727 4.47281 0.333357 3.00003 0.333357C1.52725 0.333357 0.333404 1.52727 0.333403 3.00001C0.333403 4.47276 1.52725 5.66667 3.00003 5.66667C4.47281 5.66667 5.66666 4.47276 5.66666 3.00001ZM1243.5 339L1243.5 195L1242.5 195L1242.5 339L1243.5 339ZM1243 194.5L3.00001 194.5L3.00001 195.5L1243 195.5L1243 194.5ZM3.50001 195L3.50003 3.00001L2.50003 3.00001L2.50001 195L3.50001 195Z" fill="url(#paint0_linear_1_1354)"/>
<defs>
<linearGradient id="paint0_linear_1_1354" x1="1243" y1="267" x2="3.00001" y2="267" gradientUnits="userSpaceOnUse">
<stop stop-color="#055042"/>
<stop offset="1" stop-color="#0BB696"/>
</linearGradient>
</defs>
</svg>
