<svg width="85" height="83" viewBox="0 0 85 83" fill="none" xmlns="http://www.w3.org/2000/svg">
<path d="M73.0661 0.500732C72.0985 0.500732 71.3125 1.28204 71.3125 2.24878C71.3125 3.21789 72.0985 4.00237 73.0661 4.00237C74.032 4.00237 74.818 3.21709 74.818 2.24878C74.818 1.28125 74.032 0.500732 73.0661 0.500732Z" fill="#BABABA"/>
<path d="M73.0661 10.686C72.0985 10.686 71.3125 11.4713 71.3125 12.4396C71.3125 13.4056 72.0985 14.1877 73.0661 14.1877C74.032 14.1877 74.818 13.4056 74.818 12.4396C74.818 11.4713 74.032 10.686 73.0661 10.686Z" fill="#BABABA"/>
<path d="M73.0661 20.8743C72.0985 20.8743 71.3125 21.6556 71.3125 22.6239C71.3125 23.5922 72.0985 24.3743 73.0661 24.3743C74.032 24.3743 74.818 23.5914 74.818 22.6239C74.818 21.6556 74.032 20.8743 73.0661 20.8743Z" fill="#BABABA"/>
<path d="M73.0661 31.061C72.0985 31.061 71.3125 31.8439 71.3125 32.8115C71.3125 33.7798 72.0985 34.5611 73.0661 34.5611C74.032 34.5611 74.818 33.7798 74.818 32.8115C74.818 31.8447 74.032 31.061 73.0661 31.061Z" fill="#BABABA"/>
<path d="M73.0661 41.249C72.0985 41.249 71.3125 42.0303 71.3125 42.9979C71.3125 43.9662 72.0985 44.7475 73.0661 44.7475C74.032 44.7475 74.818 43.967 74.818 42.9979C74.818 42.0303 74.032 41.249 73.0661 41.249Z" fill="#BABABA"/>
<path d="M73.0661 51.4375C72.0985 51.4375 71.3125 52.2188 71.3125 53.1871C71.3125 54.1507 72.0985 54.9399 73.0661 54.9399C74.032 54.9399 74.818 54.1499 74.818 53.1871C74.818 52.2188 74.032 51.4375 73.0661 51.4375Z" fill="#BABABA"/>
<path d="M73.0661 61.6226C72.0985 61.6226 71.3125 62.407 71.3125 63.3754C71.3125 64.3397 72.0985 65.125 73.0661 65.125C74.032 65.125 74.818 64.3397 74.818 63.3754C74.818 62.4078 74.032 61.6226 73.0661 61.6226Z" fill="#BABABA"/>
<path d="M73.0661 71.8125C72.0985 71.8125 71.3125 72.593 71.3125 73.5605C71.3125 74.5289 72.0985 75.3133 73.0661 75.3133C74.032 75.3133 74.818 74.5281 74.818 73.5605C74.818 72.593 74.032 71.8125 73.0661 71.8125Z" fill="#BABABA"/>
<path d="M73.0661 81.9976C72.0985 81.9976 71.3125 82.7789 71.3125 83.7464C71.3125 84.7139 72.0985 85.4992 73.0661 85.4992C74.032 85.4992 74.818 84.7131 74.818 83.7464C74.818 82.7789 74.032 81.9976 73.0661 81.9976Z" fill="#BABABA"/>
<path d="M83.2488 4.00237C84.2147 4.00237 85 3.21709 85 2.24878C85 1.28204 84.2147 0.500732 83.2488 0.500732C82.2773 0.500732 81.5 1.28204 81.5 2.24878C81.5 3.21709 82.2781 4.00237 83.2488 4.00237Z" fill="#BABABA"/>
<path d="M83.2488 10.686C82.2773 10.686 81.5 11.4713 81.5 12.4396C81.5 13.4056 82.2773 14.1877 83.2488 14.1877C84.2147 14.1877 85 13.4056 85 12.4396C85 11.4713 84.2147 10.686 83.2488 10.686Z" fill="#BABABA"/>
<path d="M83.2488 20.8743C82.2773 20.8743 81.5 21.6556 81.5 22.6239C81.5 23.5922 82.2773 24.3743 83.2488 24.3743C84.2147 24.3743 85 23.5914 85 22.6239C85 21.6556 84.2147 20.8743 83.2488 20.8743Z" fill="#BABABA"/>
<path d="M83.2488 31.061C82.2773 31.061 81.5 31.8439 81.5 32.8115C81.5 33.7798 82.2773 34.5611 83.2488 34.5611C84.2147 34.5611 85 33.7798 85 32.8115C85 31.8447 84.2147 31.061 83.2488 31.061Z" fill="#BABABA"/>
<path d="M83.2488 41.249C82.2773 41.249 81.5 42.0303 81.5 42.9979C81.5 43.9662 82.2773 44.7475 83.2488 44.7475C84.2147 44.7475 85 43.967 85 42.9979C85 42.0303 84.2147 41.249 83.2488 41.249Z" fill="#BABABA"/>
<path d="M83.2488 51.4375C82.2773 51.4375 81.5 52.2188 81.5 53.1871C81.5 54.1507 82.2773 54.9399 83.2488 54.9399C84.2147 54.9399 85 54.1499 85 53.1871C85 52.2188 84.2147 51.4375 83.2488 51.4375Z" fill="#BABABA"/>
<path d="M83.2488 61.6226C82.2773 61.6226 81.5 62.407 81.5 63.3754C81.5 64.3397 82.2773 65.125 83.2488 65.125C84.2147 65.125 85 64.3397 85 63.3754C85 62.4078 84.2147 61.6226 83.2488 61.6226Z" fill="#BABABA"/>
<path d="M83.2488 71.8125C82.2773 71.8125 81.5 72.593 81.5 73.5605C81.5 74.5289 82.2773 75.3133 83.2488 75.3133C84.2147 75.3133 85 74.5281 85 73.5605C85 72.593 84.2147 71.8125 83.2488 71.8125Z" fill="#BABABA"/>
<path d="M83.2488 81.9976C82.2773 81.9976 81.5 82.7789 81.5 83.7464C81.5 84.7139 82.2773 85.4992 83.2488 85.4992C84.2147 85.4992 85 84.7131 85 83.7464C85 82.7789 84.2147 81.9976 83.2488 81.9976Z" fill="#BABABA"/>
<path d="M1.75121 0.500732C0.78528 0.500732 0 1.28204 0 2.24878C0 3.21789 0.78528 4.00237 1.75121 4.00237C2.71714 4.00237 3.50002 3.21709 3.50002 2.24878C3.49923 1.28125 2.71714 0.500732 1.75121 0.500732Z" fill="#BABABA"/>
<path d="M1.75121 10.686C0.78528 10.686 0 11.4713 0 12.4396C0 13.4056 0.78528 14.1877 1.75121 14.1877C2.71714 14.1877 3.50002 13.4056 3.50002 12.4396C3.49923 11.4713 2.71714 10.686 1.75121 10.686Z" fill="#BABABA"/>
<path d="M1.75121 20.8743C0.78528 20.8743 0 21.6556 0 22.6239C0 23.5922 0.78528 24.3743 1.75121 24.3743C2.71714 24.3743 3.50002 23.5914 3.50002 22.6239C3.49923 21.6556 2.71714 20.8743 1.75121 20.8743Z" fill="#BABABA"/>
<path d="M1.75121 31.0608C0.78528 31.0608 0 31.8437 0 32.8112C0 33.7795 0.78528 34.5608 1.75121 34.5608C2.71714 34.5608 3.50002 33.7795 3.50002 32.8112C3.49923 31.8445 2.71714 31.0608 1.75121 31.0608Z" fill="#BABABA"/>
<path d="M1.75121 41.2493C0.78528 41.2493 0 42.0306 0 42.9981C0 43.9664 0.78528 44.7477 1.75121 44.7477C2.71714 44.7477 3.50002 43.9672 3.50002 42.9981C3.49923 42.0306 2.71714 41.2493 1.75121 41.2493Z" fill="#BABABA"/>
<path d="M1.75121 51.4375C0.78528 51.4375 0 52.2188 0 53.1871C0 54.1507 0.78528 54.9399 1.75121 54.9399C2.71714 54.9399 3.50002 54.1499 3.50002 53.1871C3.49923 52.2188 2.71714 51.4375 1.75121 51.4375Z" fill="#BABABA"/>
<path d="M1.75121 61.6226C0.78528 61.6226 0 62.407 0 63.3754C0 64.3397 0.78528 65.125 1.75121 65.125C2.71714 65.125 3.50002 64.3397 3.50002 63.3754C3.49923 62.4078 2.71714 61.6226 1.75121 61.6226Z" fill="#BABABA"/>
<path d="M1.75121 71.8125C0.78528 71.8125 0 72.593 0 73.5605C0 74.5289 0.78528 75.3133 1.75121 75.3133C2.71714 75.3133 3.50002 74.5281 3.50002 73.5605C3.49923 72.593 2.71714 71.8125 1.75121 71.8125Z" fill="#BABABA"/>
<path d="M1.75121 81.9976C0.78528 81.9976 0 82.7789 0 83.7464C0 84.7139 0.78528 85.4992 1.75121 85.4992C2.71714 85.4992 3.50002 84.7131 3.50002 83.7464C3.49923 82.7789 2.71714 81.9976 1.75121 81.9976Z" fill="#BABABA"/>
<path d="M11.9309 0.500732C10.9626 0.500732 10.1797 1.28204 10.1797 2.24878C10.1797 3.21789 10.9626 4.00237 11.9309 4.00237C12.8968 4.00237 13.6837 3.21709 13.6837 2.24878C13.6837 1.28125 12.8968 0.500732 11.9309 0.500732Z" fill="#BABABA"/>
<path d="M11.9387 10.686C10.9704 10.686 10.1875 11.4713 10.1875 12.4396C10.1875 13.4056 10.9704 14.1877 11.9387 14.1877C12.9046 14.1877 13.6915 13.4056 13.6915 12.4396C13.6915 11.4713 12.9046 10.686 11.9387 10.686Z" fill="#BABABA"/>
<path d="M11.9387 20.8743C10.9704 20.8743 10.1875 21.6556 10.1875 22.6239C10.1875 23.5922 10.9704 24.3743 11.9387 24.3743C12.9046 24.3743 13.6915 23.5914 13.6915 22.6239C13.6915 21.6556 12.9046 20.8743 11.9387 20.8743Z" fill="#BABABA"/>
<path d="M11.9387 31.061C10.9704 31.061 10.1875 31.8439 10.1875 32.8115C10.1875 33.7798 10.9704 34.5611 11.9387 34.5611C12.9046 34.5611 13.6915 33.7798 13.6915 32.8115C13.6915 31.8447 12.9046 31.061 11.9387 31.061Z" fill="#BABABA"/>
<path d="M11.9387 41.249C10.9704 41.249 10.1875 42.0303 10.1875 42.9979C10.1875 43.9662 10.9704 44.7475 11.9387 44.7475C12.9046 44.7475 13.6915 43.967 13.6915 42.9979C13.6915 42.0303 12.9046 41.249 11.9387 41.249Z" fill="#BABABA"/>
<path d="M11.9387 51.4375C10.9704 51.4375 10.1875 52.2188 10.1875 53.1871C10.1875 54.1507 10.9704 54.9399 11.9387 54.9399C12.9046 54.9399 13.6915 54.1499 13.6915 53.1871C13.6915 52.2188 12.9046 51.4375 11.9387 51.4375Z" fill="#BABABA"/>
<path d="M11.9387 61.6226C10.9704 61.6226 10.1875 62.407 10.1875 63.3754C10.1875 64.3397 10.9704 65.125 11.9387 65.125C12.9046 65.125 13.6915 64.3397 13.6915 63.3754C13.6915 62.4078 12.9046 61.6226 11.9387 61.6226Z" fill="#BABABA"/>
<path d="M11.9387 71.8125C10.9704 71.8125 10.1875 72.593 10.1875 73.5605C10.1875 74.5289 10.9704 75.3133 11.9387 75.3133C12.9046 75.3133 13.6915 74.5281 13.6915 73.5605C13.6915 72.593 12.9046 71.8125 11.9387 71.8125Z" fill="#BABABA"/>
<path d="M11.9387 81.9976C10.9704 81.9976 10.1875 82.7789 10.1875 83.7464C10.1875 84.7139 10.9704 85.4992 11.9387 85.4992C12.9046 85.4992 13.6915 84.7131 13.6915 83.7464C13.6915 82.7789 12.9046 81.9976 11.9387 81.9976Z" fill="#BABABA"/>
<path d="M22.1246 0.500732C21.1579 0.500732 20.375 1.28204 20.375 2.24878C20.375 3.21789 21.1579 4.00237 22.1246 4.00237C23.0945 4.00237 23.8774 3.21709 23.8774 2.24878C23.8774 1.28125 23.0937 0.500732 22.1246 0.500732Z" fill="#BABABA"/>
<path d="M22.1246 10.686C21.1579 10.686 20.375 11.4713 20.375 12.4396C20.375 13.4056 21.1579 14.1877 22.1246 14.1877C23.0945 14.1877 23.8774 13.4056 23.8774 12.4396C23.8774 11.4713 23.0937 10.686 22.1246 10.686Z" fill="#BABABA"/>
<path d="M22.1246 20.8743C21.1579 20.8743 20.375 21.6556 20.375 22.6239C20.375 23.5922 21.1579 24.3743 22.1246 24.3743C23.0945 24.3743 23.8774 23.5914 23.8774 22.6239C23.8774 21.6556 23.0937 20.8743 22.1246 20.8743Z" fill="#BABABA"/>
<path d="M22.1246 31.061C21.1579 31.061 20.375 31.8439 20.375 32.8115C20.375 33.7798 21.1579 34.5611 22.1246 34.5611C23.0945 34.5611 23.8774 33.7798 23.8774 32.8115C23.8774 31.8447 23.0937 31.061 22.1246 31.061Z" fill="#BABABA"/>
<path d="M22.1246 41.249C21.1579 41.249 20.375 42.0303 20.375 42.9979C20.375 43.9662 21.1579 44.7475 22.1246 44.7475C23.0945 44.7475 23.8774 43.967 23.8774 42.9979C23.8774 42.0303 23.0937 41.249 22.1246 41.249Z" fill="#BABABA"/>
<path d="M22.1246 51.4375C21.1579 51.4375 20.375 52.2188 20.375 53.1871C20.375 54.1507 21.1579 54.9399 22.1246 54.9399C23.0945 54.9399 23.8774 54.1499 23.8774 53.1871C23.8774 52.2188 23.0937 51.4375 22.1246 51.4375Z" fill="#BABABA"/>
<path d="M22.1246 61.6226C21.1579 61.6226 20.375 62.407 20.375 63.3754C20.375 64.3397 21.1579 65.125 22.1246 65.125C23.0945 65.125 23.8774 64.3397 23.8774 63.3754C23.8774 62.4078 23.0937 61.6226 22.1246 61.6226Z" fill="#BABABA"/>
<path d="M22.1246 71.8125C21.1579 71.8125 20.375 72.593 20.375 73.5605C20.375 74.5289 21.1579 75.3133 22.1246 75.3133C23.0945 75.3133 23.8774 74.5281 23.8774 73.5605C23.8774 72.593 23.0937 71.8125 22.1246 71.8125Z" fill="#BABABA"/>
<path d="M22.1246 81.9976C21.1579 81.9976 20.375 82.7789 20.375 83.7464C20.375 84.7139 21.1579 85.4992 22.1246 85.4992C23.0945 85.4992 23.8774 84.7131 23.8774 83.7464C23.8774 82.7789 23.0937 81.9976 22.1246 81.9976Z" fill="#BABABA"/>
<path d="M32.3082 0.500732C31.3415 0.500732 30.5547 1.28204 30.5547 2.24878C30.5547 3.21789 31.3415 4.00237 32.3082 4.00237C33.2742 4.00237 34.0563 3.21709 34.0563 2.24878C34.0563 1.28125 33.2742 0.500732 32.3082 0.500732Z" fill="#BABABA"/>
<path d="M32.3082 10.686C31.3415 10.686 30.5547 11.4713 30.5547 12.4396C30.5547 13.4056 31.3415 14.1877 32.3082 14.1877C33.2742 14.1877 34.0563 13.4056 34.0563 12.4396C34.0563 11.4713 33.2742 10.686 32.3082 10.686Z" fill="#BABABA"/>
<path d="M32.3082 20.8743C31.3415 20.8743 30.5547 21.6556 30.5547 22.6239C30.5547 23.5922 31.3415 24.3743 32.3082 24.3743C33.2742 24.3743 34.0563 23.5914 34.0563 22.6239C34.0563 21.6556 33.2742 20.8743 32.3082 20.8743Z" fill="#BABABA"/>
<path d="M32.3082 31.061C31.3415 31.061 30.5547 31.8439 30.5547 32.8115C30.5547 33.7798 31.3415 34.5611 32.3082 34.5611C33.2742 34.5611 34.0563 33.7798 34.0563 32.8115C34.0563 31.8447 33.2742 31.061 32.3082 31.061Z" fill="#BABABA"/>
<path d="M32.3082 41.249C31.3415 41.249 30.5547 42.0303 30.5547 42.9979C30.5547 43.9662 31.3415 44.7475 32.3082 44.7475C33.2742 44.7475 34.0563 43.967 34.0563 42.9979C34.0563 42.0303 33.2742 41.249 32.3082 41.249Z" fill="#BABABA"/>
<path d="M32.3082 51.4375C31.3415 51.4375 30.5547 52.2188 30.5547 53.1871C30.5547 54.1507 31.3415 54.9399 32.3082 54.9399C33.2742 54.9399 34.0563 54.1499 34.0563 53.1871C34.0563 52.2188 33.2742 51.4375 32.3082 51.4375Z" fill="#BABABA"/>
<path d="M32.3082 61.6226C31.3415 61.6226 30.5547 62.407 30.5547 63.3754C30.5547 64.3397 31.3415 65.125 32.3082 65.125C33.2742 65.125 34.0563 64.3397 34.0563 63.3754C34.0563 62.4078 33.2742 61.6226 32.3082 61.6226Z" fill="#BABABA"/>
<path d="M32.3082 71.8125C31.3415 71.8125 30.5547 72.593 30.5547 73.5605C30.5547 74.5289 31.3415 75.3133 32.3082 75.3133C33.2742 75.3133 34.0563 74.5281 34.0563 73.5605C34.0563 72.593 33.2742 71.8125 32.3082 71.8125Z" fill="#BABABA"/>
<path d="M32.3082 81.9976C31.3415 81.9976 30.5547 82.7789 30.5547 83.7464C30.5547 84.7139 31.3415 85.4992 32.3082 85.4992C33.2742 85.4992 34.0563 84.7131 34.0563 83.7464C34.0563 82.7789 33.2742 81.9976 32.3082 81.9976Z" fill="#BABABA"/>
<path d="M42.5036 0.500732C41.5376 0.500732 40.75 1.28204 40.75 2.24878C40.75 3.21789 41.5376 4.00237 42.5036 4.00237C43.4695 4.00237 44.2516 3.21709 44.2516 2.24878C44.2516 1.28125 43.4687 0.500732 42.5036 0.500732Z" fill="#BABABA"/>
<path d="M42.5036 10.686C41.5376 10.686 40.75 11.4713 40.75 12.4396C40.75 13.4056 41.5376 14.1877 42.5036 14.1877C43.4695 14.1877 44.2516 13.4056 44.2516 12.4396C44.2516 11.4713 43.4687 10.686 42.5036 10.686Z" fill="#BABABA"/>
<path d="M42.5036 20.8743C41.5376 20.8743 40.75 21.6556 40.75 22.6239C40.75 23.5922 41.5376 24.3743 42.5036 24.3743C43.4695 24.3743 44.2516 23.5914 44.2516 22.6239C44.2516 21.6556 43.4687 20.8743 42.5036 20.8743Z" fill="#BABABA"/>
<path d="M42.5036 31.061C41.5376 31.061 40.75 31.8439 40.75 32.8115C40.75 33.7798 41.5376 34.5611 42.5036 34.5611C43.4695 34.5611 44.2516 33.7798 44.2516 32.8115C44.2516 31.8447 43.4687 31.061 42.5036 31.061Z" fill="#BABABA"/>
<path d="M42.5036 41.249C41.5376 41.249 40.75 42.0303 40.75 42.9979C40.75 43.9662 41.5376 44.7475 42.5036 44.7475C43.4695 44.7475 44.2516 43.967 44.2516 42.9979C44.2516 42.0303 43.4687 41.249 42.5036 41.249Z" fill="#BABABA"/>
<path d="M42.5036 51.4375C41.5376 51.4375 40.75 52.2188 40.75 53.1871C40.75 54.1507 41.5376 54.9399 42.5036 54.9399C43.4695 54.9399 44.2516 54.1499 44.2516 53.1871C44.2516 52.2188 43.4687 51.4375 42.5036 51.4375Z" fill="#BABABA"/>
<path d="M42.5036 61.6226C41.5376 61.6226 40.75 62.407 40.75 63.3754C40.75 64.3397 41.5376 65.125 42.5036 65.125C43.4695 65.125 44.2516 64.3397 44.2516 63.3754C44.2516 62.4078 43.4687 61.6226 42.5036 61.6226Z" fill="#BABABA"/>
<path d="M42.5036 71.8125C41.5376 71.8125 40.75 72.593 40.75 73.5605C40.75 74.5289 41.5376 75.3133 42.5036 75.3133C43.4695 75.3133 44.2516 74.5281 44.2516 73.5605C44.2516 72.593 43.4687 71.8125 42.5036 71.8125Z" fill="#BABABA"/>
<path d="M42.5036 81.9976C41.5376 81.9976 40.75 82.7789 40.75 83.7464C40.75 84.7139 41.5376 85.4992 42.5036 85.4992C43.4695 85.4992 44.2516 84.7131 44.2516 83.7464C44.2516 82.7789 43.4687 81.9976 42.5036 81.9976Z" fill="#BABABA"/>
<path d="M52.6801 0.500732C51.7141 0.500732 50.9297 1.28204 50.9297 2.24878C50.9297 3.21789 51.7141 4.00237 52.6801 4.00237C53.6508 4.00237 54.4337 3.21709 54.4337 2.24878C54.4337 1.28125 53.6508 0.500732 52.6801 0.500732Z" fill="#BABABA"/>
<path d="M52.6801 10.686C51.7141 10.686 50.9297 11.4713 50.9297 12.4396C50.9297 13.4056 51.7141 14.1877 52.6801 14.1877C53.6508 14.1877 54.4337 13.4056 54.4337 12.4396C54.4337 11.4713 53.6508 10.686 52.6801 10.686Z" fill="#BABABA"/>
<path d="M52.6801 20.8743C51.7141 20.8743 50.9297 21.6556 50.9297 22.6239C50.9297 23.5922 51.7141 24.3743 52.6801 24.3743C53.6508 24.3743 54.4337 23.5914 54.4337 22.6239C54.4337 21.6556 53.6508 20.8743 52.6801 20.8743Z" fill="#BABABA"/>
<path d="M52.6801 31.061C51.7141 31.061 50.9297 31.8439 50.9297 32.8115C50.9297 33.7798 51.7141 34.5611 52.6801 34.5611C53.6508 34.5611 54.4337 33.7798 54.4337 32.8115C54.4337 31.8447 53.6508 31.061 52.6801 31.061Z" fill="#BABABA"/>
<path d="M52.6801 41.249C51.7141 41.249 50.9297 42.0303 50.9297 42.9979C50.9297 43.9662 51.7141 44.7475 52.6801 44.7475C53.6508 44.7475 54.4337 43.967 54.4337 42.9979C54.4337 42.0303 53.6508 41.249 52.6801 41.249Z" fill="#BABABA"/>
<path d="M52.6801 51.4375C51.7141 51.4375 50.9297 52.2188 50.9297 53.1871C50.9297 54.1507 51.7141 54.9399 52.6801 54.9399C53.6508 54.9399 54.4337 54.1499 54.4337 53.1871C54.4337 52.2188 53.6508 51.4375 52.6801 51.4375Z" fill="#BABABA"/>
<path d="M52.6801 61.6226C51.7141 61.6226 50.9297 62.407 50.9297 63.3754C50.9297 64.3397 51.7141 65.125 52.6801 65.125C53.6508 65.125 54.4337 64.3397 54.4337 63.3754C54.4337 62.4078 53.6508 61.6226 52.6801 61.6226Z" fill="#BABABA"/>
<path d="M52.6801 71.8125C51.7141 71.8125 50.9297 72.593 50.9297 73.5605C50.9297 74.5289 51.7141 75.3133 52.6801 75.3133C53.6508 75.3133 54.4337 74.5281 54.4337 73.5605C54.4337 72.593 53.6508 71.8125 52.6801 71.8125Z" fill="#BABABA"/>
<path d="M52.6801 81.9976C51.7141 81.9976 50.9297 82.7789 50.9297 83.7464C50.9297 84.7139 51.7141 85.4992 52.6801 85.4992C53.6508 85.4992 54.4337 84.7131 54.4337 83.7464C54.4337 82.7789 53.6508 81.9976 52.6801 81.9976Z" fill="#BABABA"/>
<path d="M62.877 0.500732C61.9063 0.500732 61.125 1.28204 61.125 2.24878C61.125 3.21789 61.9063 4.00237 62.877 4.00237C63.8413 4.00237 64.6258 3.21709 64.6258 2.24878C64.6258 1.28125 63.8405 0.500732 62.877 0.500732Z" fill="#BABABA"/>
<path d="M62.877 10.686C61.9063 10.686 61.125 11.4713 61.125 12.4396C61.125 13.4056 61.9063 14.1877 62.877 14.1877C63.8413 14.1877 64.6258 13.4056 64.6258 12.4396C64.6258 11.4713 63.8405 10.686 62.877 10.686Z" fill="#BABABA"/>
<path d="M62.877 20.8743C61.9063 20.8743 61.125 21.6556 61.125 22.6239C61.125 23.5922 61.9063 24.3743 62.877 24.3743C63.8413 24.3743 64.6258 23.5914 64.6258 22.6239C64.6258 21.6556 63.8405 20.8743 62.877 20.8743Z" fill="#BABABA"/>
<path d="M62.877 31.061C61.9063 31.061 61.125 31.8439 61.125 32.8115C61.125 33.7798 61.9063 34.5611 62.877 34.5611C63.8413 34.5611 64.6258 33.7798 64.6258 32.8115C64.6258 31.8447 63.8405 31.061 62.877 31.061Z" fill="#BABABA"/>
<path d="M62.877 41.249C61.9063 41.249 61.125 42.0303 61.125 42.9979C61.125 43.9662 61.9063 44.7475 62.877 44.7475C63.8413 44.7475 64.6258 43.967 64.6258 42.9979C64.6258 42.0303 63.8405 41.249 62.877 41.249Z" fill="#BABABA"/>
<path d="M62.877 51.4375C61.9063 51.4375 61.125 52.2188 61.125 53.1871C61.125 54.1507 61.9063 54.9399 62.877 54.9399C63.8413 54.9399 64.6258 54.1499 64.6258 53.1871C64.6258 52.2188 63.8405 51.4375 62.877 51.4375Z" fill="#BABABA"/>
<path d="M62.877 61.6226C61.9063 61.6226 61.125 62.407 61.125 63.3754C61.125 64.3397 61.9063 65.125 62.877 65.125C63.8413 65.125 64.6258 64.3397 64.6258 63.3754C64.6258 62.4078 63.8405 61.6226 62.877 61.6226Z" fill="#BABABA"/>
<path d="M62.877 71.8125C61.9063 71.8125 61.125 72.593 61.125 73.5605C61.125 74.5289 61.9063 75.3133 62.877 75.3133C63.8413 75.3133 64.6258 74.5281 64.6258 73.5605C64.6258 72.593 63.8405 71.8125 62.877 71.8125Z" fill="#BABABA"/>
<path d="M62.877 81.9976C61.9063 81.9976 61.125 82.7789 61.125 83.7464C61.125 84.7139 61.9063 85.4992 62.877 85.4992C63.8413 85.4992 64.6258 84.7131 64.6258 83.7464C64.6258 82.7789 63.8405 81.9976 62.877 81.9976Z" fill="#BABABA"/>
</svg>
