<svg width="463.181641" height="182.250000" viewBox="0 0 463.182 182.25" fill="none" xmlns="http://www.w3.org/2000/svg" xmlns:xlink="http://www.w3.org/1999/xlink">
	<desc>
			Created with Pixso.
	</desc>
	<defs/>
	<g style="mix-blend-mode:difference">
		<path id="как" d="M238.99 0L304.24 182.25L277.49 182.25L258.49 127.25L187.99 127.25L167.99 182.25L116.25 182.25L53 91.75L24 119.75L24 182.25L0 182.25L0 2.75L24 2.75L24 90.25L111.5 2.75L145 2.75L70.25 75.25L144.19 178.33L209.99 0L238.99 0ZM427.68 2.75L340.18 90.25L340.18 2.75L316.18 2.75L316.18 182.25L340.18 182.25L340.18 119.75L369.18 91.75L432.43 182.25L463.18 182.25L386.43 75.25L461.18 2.75L427.68 2.75ZM194.24 108.25L251.74 108.25L224.49 28.5L194.24 108.25Z" fill="#FFFFFF" fill-opacity="1.000000" fill-rule="evenodd"/>
	</g>
</svg>
