<svg width="221.850586" height="74.731445" viewBox="0 0 221.851 74.7314" fill="none" xmlns="http://www.w3.org/2000/svg" xmlns:xlink="http://www.w3.org/1999/xlink">
	<desc>
			Created with Pixso.
	</desc>
	<defs/>
	<path id="Playfull and Practic" d="M96.66 0C115.48 0 129.4 14.11 129.4 37.37C129.4 60.62 115.48 74.73 96.66 74.73C77.76 74.73 63.87 60.59 63.87 37.37C63.87 14.11 77.76 0 96.66 0ZM10.98 73.73L0 73.73L0 1L10.98 1L10.98 32.61L47.24 32.61L47.24 1L58.25 1L58.25 73.73L47.24 73.73L47.24 42.01L10.98 42.01L10.98 73.73ZM159.42 73.73L148.36 73.73L128.17 1L139.72 1L153.88 57.32L154.56 57.32L169.31 1L180.73 1L195.48 57.34L196.14 57.34L210.27 1L221.85 1L201.66 73.73L190.6 73.73L175.31 19.26L174.73 19.26L159.42 73.73ZM96.66 64.72C109.16 64.72 118.53 55.07 118.53 37.37C118.53 19.65 109.16 10.03 96.66 10.03C84.11 10.03 74.78 19.65 74.78 37.37C74.78 55.07 84.11 64.72 96.66 64.72Z" fill="#FFFFFF" fill-opacity="1.000000" fill-rule="evenodd"/>
</svg>
