<svg width="178" height="73" viewBox="0 0 178 73" fill="none" xmlns="http://www.w3.org/2000/svg">
<path d="M43.1364 73L18.7045 40.4006H10.9631V73H-0.00994298V0.272725H10.9631V30.9901H14.5497L42.0355 0.272725H55.4233L26.3395 32.8366L56.5241 73H43.1364ZM64.8327 73H53.185L79.3569 0.272725H92.0344L118.206 73H106.559L85.9975 13.483H85.4293L64.8327 73ZM66.7859 44.5199H104.57V53.7528H66.7859V44.5199ZM163.855 73L139.423 40.4006H131.682V73H120.709V0.272725H131.682V30.9901H135.268L162.754 0.272725H176.142L147.058 32.8366L177.243 73H163.855Z" fill="white"/>
</svg>
