<svg width="30" height="30" viewBox="0 0 30 30" fill="none" xmlns="http://www.w3.org/2000/svg">
<path d="M10.7655 12.6033H7.56654C7.46048 12.6033 7.35877 12.6454 7.28378 12.7204C7.20879 12.7954 7.16666 12.8971 7.16666 13.0032V22.6001C7.16666 22.7062 7.20879 22.8079 7.28378 22.8829C7.35877 22.9579 7.46048 23 7.56654 23H10.7655C10.8716 23 10.9733 22.9579 11.0483 22.8829C11.1233 22.8079 11.1654 22.7062 11.1654 22.6001V13.0032C11.1654 12.8971 11.1233 12.7954 11.0483 12.7204C10.9733 12.6454 10.8716 12.6033 10.7655 12.6033ZM10.3657 22.2003H7.96641V13.403H10.3657V22.2003ZM19.1629 12.6033C18.2951 12.6033 17.4514 12.8896 16.7636 13.4182V13.0032C16.7636 12.8971 16.7215 12.7954 16.6465 12.7204C16.5715 12.6454 16.4698 12.6033 16.3638 12.6033H13.1648C13.0587 12.6033 12.957 12.6454 12.882 12.7204C12.807 12.7954 12.7649 12.8971 12.7649 13.0032V22.6001C12.7649 22.7062 12.807 22.8079 12.882 22.8829C12.957 22.9579 13.0587 23 13.1648 23H16.3638C16.4698 23 16.5715 22.9579 16.6465 22.8829C16.7215 22.8079 16.7636 22.7062 16.7636 22.6001V18.2015C16.7636 17.8834 16.89 17.5782 17.115 17.3533C17.34 17.1283 17.6451 17.0019 17.9633 17.0019C18.2814 17.0019 18.5865 17.1283 18.8115 17.3533C19.0365 17.5782 19.1629 17.8834 19.1629 18.2015V22.6001C19.1629 22.7062 19.205 22.8079 19.28 22.8829C19.355 22.9579 19.4567 23 19.5627 23H22.7617C22.8678 23 22.9695 22.9579 23.0445 22.8829C23.1195 22.8079 23.1616 22.7062 23.1616 22.6001V16.602C23.1603 15.5419 22.7386 14.5255 21.989 13.7759C21.2394 13.0263 20.223 12.6046 19.1629 12.6033ZM22.3619 22.2003H19.9626V18.2015C19.9626 17.6713 19.752 17.1627 19.377 16.7877C19.0021 16.4128 18.4935 16.2021 17.9633 16.2021C17.433 16.2021 16.9244 16.4128 16.5495 16.7877C16.1745 17.1627 15.9639 17.6713 15.9639 18.2015V22.2003H13.5646V13.403H15.9639V14.3651C15.9639 14.4479 15.9896 14.5287 16.0374 14.5963C16.0853 14.6639 16.153 14.715 16.2311 14.7424C16.3092 14.7699 16.394 14.7725 16.4736 14.7497C16.5532 14.727 16.6238 14.68 16.6757 14.6154C17.0863 14.0949 17.6493 13.7154 18.2859 13.53C18.9225 13.3447 19.6011 13.3626 20.2271 13.5812C20.8531 13.7999 21.3952 14.2085 21.7779 14.75C22.1605 15.2915 22.3647 15.939 22.3619 16.602V22.2003ZM9.46034 7.00665C9.36635 7.00058 9.27208 7.00005 9.17803 7.00506C8.87874 6.98469 8.57845 7.02599 8.29577 7.12641C8.01309 7.22682 7.75404 7.38421 7.53467 7.58881C7.31529 7.79342 7.14026 8.04089 7.02042 8.31589C6.90058 8.5909 6.83848 8.88758 6.83797 9.18757C6.83548 9.48441 6.89401 9.77861 7.00991 10.0519C7.12582 10.3252 7.29663 10.5718 7.51176 10.7763C7.72689 10.9809 7.98175 11.1391 8.26054 11.2411C8.53933 11.3431 8.83609 11.3867 9.13244 11.3693H9.15483C9.44129 11.3893 9.72889 11.3528 10.0012 11.2617C10.2735 11.1706 10.5253 11.0268 10.742 10.8384C10.9587 10.65 11.1362 10.4208 11.2644 10.1638C11.3926 9.90687 11.4688 9.62717 11.4889 9.34072C11.509 9.05426 11.4724 8.76666 11.3813 8.49434C11.2902 8.22201 11.1464 7.9703 10.958 7.75356C10.7696 7.53682 10.5404 7.35931 10.2835 7.23115C10.0265 7.103 9.74679 7.02671 9.46034 7.00665ZM9.43235 10.5719C9.34011 10.5805 9.24761 10.5797 9.15483 10.5695H9.13244C8.93997 10.584 8.74659 10.5582 8.56465 10.4937C8.38272 10.4292 8.21622 10.3275 8.0758 10.1951C7.93538 10.0627 7.82412 9.90242 7.74911 9.72457C7.67411 9.54671 7.63701 9.35518 7.64019 9.16219C7.64338 8.96919 7.68677 8.77898 7.76759 8.6037C7.84842 8.42842 7.96491 8.27192 8.10962 8.14419C8.25433 8.01646 8.42408 7.9203 8.60805 7.86187C8.79201 7.80343 8.98613 7.784 9.17803 7.8048C9.54497 7.77108 9.91028 7.8845 10.1936 8.12012C10.4769 8.35574 10.655 8.69426 10.6887 9.06121C10.7225 9.42815 10.6091 9.79346 10.3734 10.0768C10.1378 10.3601 9.79929 10.5382 9.43235 10.5719Z" fill="#D9D9D9"/>
</svg>
