<svg width="30" height="30" viewBox="0 0 30 30" fill="none" xmlns="http://www.w3.org/2000/svg">
<path d="M19.1214 11.843C18.7269 11.843 18.4062 11.5355 18.4062 11.1565V10.0334C18.4062 9.65332 18.7269 9.34473 19.1214 9.34473H20.2897C20.6848 9.34473 21.006 9.65332 21.006 10.0334V11.156C21.006 11.535 20.6848 11.8425 20.2897 11.8425H19.1214V11.843ZM19.0688 11.2065H20.3429V9.98234H19.0688V11.2065Z" fill="#D9D9D9"/>
<path d="M15.0324 13.7314C13.8898 13.7314 12.9609 14.6244 12.9609 15.7222C12.9609 16.82 13.8898 17.713 15.0324 17.713C16.1756 17.713 17.105 16.82 17.105 15.7222C17.105 14.6244 16.1756 13.7314 15.0324 13.7314ZM15.0324 16.97C14.3173 16.97 13.7348 16.4104 13.7348 15.7228C13.7348 15.0357 14.3173 14.4766 15.0324 14.4766C15.7481 14.4766 16.3306 15.0357 16.3306 15.7228C16.3306 16.4104 15.7481 16.97 15.0324 16.97Z" fill="#D9D9D9"/>
<path d="M22.9877 13.0006V9.82867C22.9877 8.67818 22.0141 7.74219 20.8172 7.74219H9.17053C7.97363 7.74219 7 8.67818 7 9.82867V21.1385C7 22.2901 7.97363 23.2261 9.17053 23.2261H20.8172C22.0141 23.2261 22.9877 22.2901 22.9877 21.1385L22.9899 13.178C22.9966 13.1506 23 13.1221 23 13.0963C23 13.0705 22.9961 13.042 22.9877 13.0006ZM20.8172 8.48625C21.5871 8.48625 22.2133 9.08838 22.2133 9.82814V12.7248L17.823 12.7108C17.0441 12.0356 16.0391 11.6641 14.9916 11.6641C14.3554 11.6641 13.7421 11.7974 13.1669 12.0609L13.008 12.1361C12.5967 12.3168 12.3046 12.5909 12.2755 12.6157C12.2375 12.6463 12.1961 12.6791 12.1239 12.7248H7.77387V9.82814C7.77387 9.26418 8.14486 8.75721 8.69602 8.56474L8.83591 8.51474C8.83759 8.5142 9.01888 8.48571 9.48891 8.48571H20.8172V8.48625ZM14.9922 19.0391C13.0902 19.0391 11.5419 17.551 11.5419 15.722C11.5419 13.8947 13.0902 12.4071 14.9922 12.4071C16.8963 12.4071 18.4458 13.8947 18.4458 15.722C18.4458 17.5515 16.8969 19.0391 14.9922 19.0391ZM7.77387 13.4689H11.4809L11.4261 13.5511C10.9947 14.2033 10.7675 14.9538 10.7675 15.722C10.7675 17.9612 12.6627 19.7826 14.9922 19.7826C17.3233 19.7826 19.2202 17.9612 19.2202 15.722C19.2202 14.9522 18.9924 14.2016 18.561 13.5506L18.5056 13.4689H22.2133V21.1385C22.2133 21.8793 21.5871 22.4825 20.8172 22.4825H9.17053C8.40057 22.4825 7.77387 21.8793 7.77387 21.1385V13.4689Z" fill="#D9D9D9"/>
</svg>
