<svg width="485.751953" height="188.500000" viewBox="0 0 485.752 188.5" fill="none" xmlns="http://www.w3.org/2000/svg" xmlns:xlink="http://www.w3.org/1999/xlink">
	<desc>
			Created with Pixso.
	</desc>
	<defs/>
	<g style="mix-blend-mode:difference">
		<path id="это" d="M133 81C133.25 73.5 132 66 129.75 58.75C127.75 51.5 124.25 45.25 119.5 39.5C114.75 34 108.75 29.5 101.75 26C94.25 22.75 85.75 21 75.5 21C69.5 21 63.5 21.75 58 23Q49.37 25.25 43 29.75C38.5 32.75 34.75 36.5 31.75 41.25C29 45.75 27 51.25 26.25 57.75L2.75 57.75C2.75 53.5 3.5 48.75 4.75 44.25C6.25 39.75 8.25 35.25 11 31C13.75 26.75 21.25 19 21.25 19C21.25 19 30 12 35.5 9C41 6.25 47 4 54 2.5C60.75 1 68 0 76.25 0C83.5 0 90.5 0.75 97.25 2C104.25 3.5 110.75 6 116.75 9C123 12.25 128.5 16.25 133.5 21C138.75 26 143.25 31.75 146.75 38.5C150.5 45.5 153.5 53.5 155.5 62.5C157.5 71.5 158.5 81.75 158.5 93C158.5 105.75 157.25 116.5 154.5 126.25C152 136 148.5 144.25 144.25 151.25C139.75 158.25 134.75 164.25 129 169C123.25 173.75 117.5 177.75 111.25 180.5C105 183.5 98.75 185.5 92.25 186.75C86 188 80 188.5 74.25 188.5C62.75 188.5 52.5 186.5 43.25 182.75C34.25 179 26.25 173.75 20 167.5C13.75 161.25 8.75 153.75 5.25 145.5C1.75 137.25 0 128.75 0 119.75L23.25 119.75C23.25 126.25 24.5 132.25 27.25 138C29.75 143.75 33.25 149 38 153.25C42.5 157.75 48 161 54.5 163.5C60.75 166.25 67.75 167.5 75.5 167.5C79.5 167.5 83.75 167 88 166.25C92.5 165.25 96.75 163.75 101 161.75C105.25 159.5 109.25 157 113.25 153.5C117 150.25 120.5 146.25 123.25 141.25C126.25 136.5 128.5 130.75 130.25 124.25C132 117.75 133 110.5 133 102L64 102L64 81L133 81ZM483.25 117.25C485 109.75 485.75 102 485.75 94.25C485.75 80.25 483.75 67.75 479.75 56C475.75 44.5 470.25 34.5 462.75 26.25C455.25 18 446.25 11.5 435.25 7C424.5 2.25 412 0 398.25 0C384.5 0 372.25 2.25 361.25 7C350.5 11.5 341.25 18 333.75 26.25C326.5 34.5 320.75 44.5 316.75 56C312.75 67.75 310.75 80.25 310.75 94.25C310.75 102 311.5 109.75 313 117.25C314.75 125 317 132.25 320.25 139.25Q321.15 141.35 322.17 143.39Q326.25 151.55 332.25 158.75C337 164.75 342.75 170 349 174.25C355.5 178.75 363 182.25 371 184.75C379.25 187.25 388.5 188.5 398.25 188.5C408.25 188.5 417.25 187.25 425.5 184.75C433.75 182.25 441 178.75 447.5 174.25C454 170 459.75 164.75 464.5 158.75C469.25 152.75 473 146.25 476.25 139.25C479.5 132.25 481.75 125 483.25 117.25ZM307.67 25.5L246.67 25.5L246.67 184L222.67 184L222.67 25.5L161.67 25.5L161.67 4.5L307.67 4.5L307.67 25.5ZM457.5 64.75C460.25 73.75 461.75 83.75 461.75 94.25C461.75 105.25 460.5 115.25 457.75 124C455.25 133 451.5 140.75 446.25 147.25C441 153.75 434.25 158.5 426.25 162.25C418.25 165.75 409 167.5 398.25 167.5C387.5 167.5 378.25 165.75 370.25 162.25C362.5 158.5 355.75 153.75 350.5 147.25Q342.62 137.5 338.5 124C336 115.25 334.75 105.25 334.75 94.25C334.75 83.75 336.25 73.75 339 64.75C341.75 55.75 346 48 351.5 41.5C356.75 35 363.5 30 371.25 26.5C379.25 22.75 388.25 21 398.25 21C408.25 21 417.25 22.75 425.25 26.5C433 30 439.75 35 445.25 41.5C450.5 48 454.75 55.75 457.5 64.75Z" fill="#FFFFFF" fill-opacity="1.000000" fill-rule="evenodd"/>
	</g>
</svg>
