<svg width="178" height="75" viewBox="0 0 178 75" fill="none" xmlns="http://www.w3.org/2000/svg">
<path d="M49.9006 33.8722V43.1761H19.4673V33.8722H49.9006ZM0.681818 50.9176H11.8324C12.4479 55.6998 14.0341 59.3575 16.5909 61.8906C19.1714 64.4238 23.1842 65.6903 28.6293 65.6903C32.6539 65.6903 35.9683 64.625 38.5724 62.4943C41.1766 60.34 43.1061 57.428 44.3608 53.7585C45.6392 50.089 46.2784 45.9697 46.2784 41.4006V34.0142C46.2784 29.09 45.5682 24.8049 44.1477 21.1591C42.7273 17.5133 40.6558 14.696 37.9332 12.7074C35.2344 10.7188 31.9318 9.72443 28.0256 9.72443C24.4981 9.72443 21.6098 10.3281 19.3608 11.5355C17.1117 12.7429 15.3835 14.4711 14.1761 16.7202C12.9924 18.9455 12.2112 21.6326 11.8324 24.7812H0.646307C1.11979 20.0938 2.42188 15.9034 4.55256 12.2102C6.70691 8.51704 9.72538 5.60511 13.608 3.47443C17.5142 1.34375 22.3201 0.278406 28.0256 0.278406C34.0388 0.278406 39.2353 1.67519 43.6151 4.46875C48.0185 7.23863 51.4157 11.1449 53.8068 16.1875C56.1979 21.2301 57.3935 27.1487 57.3935 33.9432V41.5071C57.3935 48.3016 56.2098 54.2083 53.8423 59.2273C51.4986 64.2462 48.1723 68.1288 43.8636 70.875C39.5549 73.6212 34.4768 74.9943 28.6293 74.9943C22.7817 74.9943 17.8693 73.9527 13.892 71.8693C9.91477 69.7623 6.83712 66.8977 4.65909 63.2756C2.48106 59.6297 1.1553 55.5104 0.681818 50.9176ZM56.3448 10.7188V1.27273H112.63V10.7188H89.9386V74H79.0011V10.7188H56.3448ZM177.118 37.6364C177.118 45.4015 175.697 52.0777 172.857 57.6648C170.016 63.2282 166.121 67.5133 161.173 70.5199C156.249 73.5028 150.65 74.9943 144.376 74.9943C138.079 74.9943 132.456 73.5028 127.509 70.5199C122.584 67.5133 118.702 63.2164 115.861 57.6293C113.02 52.0421 111.599 45.3778 111.599 37.6364C111.599 29.8712 113.02 23.2069 115.861 17.6435C118.702 12.0563 122.584 7.7713 127.509 4.78835C132.456 1.78172 138.079 0.278406 144.376 0.278406C150.65 0.278406 156.249 1.78172 161.173 4.78835C166.121 7.7713 170.016 12.0563 172.857 17.6435C175.697 23.2069 177.118 29.8712 177.118 37.6364ZM166.251 37.6364C166.251 31.7178 165.293 26.7344 163.375 22.6861C161.481 18.6141 158.877 15.5365 155.562 13.4531C152.272 11.3461 148.543 10.2926 144.376 10.2926C140.186 10.2926 136.446 11.3461 133.155 13.4531C129.864 15.5365 127.26 18.6141 125.342 22.6861C123.448 26.7344 122.501 31.7178 122.501 37.6364C122.501 43.5549 123.448 48.5502 125.342 52.6222C127.26 56.6705 129.864 59.7481 133.155 61.8551C136.446 63.9384 140.186 64.9801 144.376 64.9801C148.543 64.9801 152.272 63.9384 155.562 61.8551C158.877 59.7481 161.481 56.6705 163.375 52.6222C165.293 48.5502 166.251 43.5549 166.251 37.6364Z" fill="white"/>
</svg>
