<svg width="30" height="30" viewBox="0 0 30 30" fill="none" xmlns="http://www.w3.org/2000/svg">
<g clip-path="url(#clip0_1_3947)">
<path fill-rule="evenodd" clip-rule="evenodd" d="M19.211 10.4166L18.0169 11.6107C17.187 11.0208 16.2103 10.7177 15.1503 10.7177C13.1873 10.7177 11.4935 11.8435 10.6081 13.4518L9.25551 12.4023C10.4709 10.4111 12.6533 9.08574 15.1503 9.08574C16.7437 9.08574 18.1028 9.58035 19.211 10.4166ZM15.1503 11.4177C13.424 11.4177 11.9239 12.4336 11.1689 13.8869C11.0584 14.0996 10.9639 14.3215 10.8869 14.5511L10.8905 14.5538C10.7382 15.0107 10.6482 15.4953 10.6482 16.0006C10.6482 16.5059 10.7382 16.9905 10.8905 17.4474L10.3298 17.8766L8.92062 18.9742L8.35689 19.4133C8.24865 19.1997 8.15004 18.9804 8.06175 18.7559C7.72654 17.9035 7.54004 16.9759 7.54004 16.0006C7.54004 14.7693 7.83729 13.6141 8.35576 12.5901L8.35254 12.5876C9.60547 10.0956 12.1737 8.38574 15.1503 8.38574C16.9393 8.38574 18.4715 8.95706 19.7103 9.91729C19.8952 10.0605 20.0735 10.2125 20.2451 10.3724L19.7498 10.8678L18.0646 12.553C17.2685 11.8053 16.2717 11.4177 15.1503 11.4177ZM8.92012 13.028C8.48649 13.9274 8.24004 14.9321 8.24004 16.0006C8.24004 16.8116 8.38204 17.586 8.64013 18.3054L9.89962 17.3243L9.9043 17.3207L9.90431 17.3207L10.0875 17.1805C9.99876 16.8038 9.94821 16.4094 9.94821 16.0006C9.94821 15.4113 10.0533 14.852 10.2264 14.3325C10.2519 14.2561 10.2893 14.1869 10.3358 14.1265L10.3048 14.1025L8.92012 13.028ZM20.1891 21.7732L20.1897 21.7737C20.0143 21.9356 19.8299 22.0881 19.6369 22.2307C18.4435 23.1124 16.92 23.615 15.1503 23.615C12.1737 23.615 9.60547 21.9052 8.35254 19.4201L8.90567 18.9909C8.93277 19.0259 8.95692 19.0639 8.97759 19.1049C10.1168 21.3645 12.4495 22.915 15.1503 22.915C16.7004 22.915 18.0187 22.4988 19.0595 21.7827L17.6658 20.7013C16.9483 21.0777 16.1003 21.2899 15.1503 21.2899C12.9319 21.2899 11.0573 19.8522 10.3048 17.9052L10.8861 17.4541C11.4884 19.2539 13.1705 20.5899 15.1503 20.5899C16.1747 20.5899 17.0398 20.3131 17.7182 19.8564L17.7176 19.8559C18.3195 19.4547 18.7723 18.9082 19.039 18.2647C19.1312 18.0422 19.2012 17.8082 19.2474 17.5647H18.5319H15.8494H15.1494V16.8647V15.3157V14.6157H15.8494H22.321C22.411 15.1141 22.4594 15.6333 22.4594 16.1732C22.4594 18.4921 21.6289 20.4441 20.1891 21.7732ZM19.636 21.344C19.6593 21.3141 19.6853 21.2856 19.7141 21.2591C20.9936 20.078 21.7594 18.321 21.7594 16.1732C21.7594 15.8804 21.744 15.5946 21.7144 15.3157H15.8494V16.8647H19.2474C19.456 16.8647 19.6536 16.9576 19.7866 17.1182C19.9196 17.2788 19.974 17.4903 19.9352 17.6952C19.7338 18.756 19.1543 19.666 18.2961 20.3044L19.6281 21.3379L19.636 21.344Z" fill="#D9D9D9"/>
</g>
<defs>
<clipPath id="clip0_1_3947">
<rect width="16" height="16" fill="white" transform="translate(7 8)"/>
</clipPath>
</defs>
</svg>
