<svg width="287" height="91" viewBox="0 0 287 91" fill="none" xmlns="http://www.w3.org/2000/svg">
<g style="mix-blend-mode:difference">
<path d="M-0.00994298 73V0.272725H45.3381V9.71875H10.9631V29.6051H27.2273C32.625 29.6051 37.206 30.4811 40.9702 32.233C44.758 33.9848 47.6463 36.4588 49.6349 39.6548C51.6473 42.8509 52.6534 46.6151 52.6534 50.9474C52.6534 55.2798 51.6473 59.1032 49.6349 62.4176C47.6463 65.732 44.758 68.3243 40.9702 70.1946C37.206 72.0649 32.625 73 27.2273 73H-0.00994298ZM10.9631 63.767H27.2273C30.3523 63.767 32.992 63.1515 35.1463 61.9205C37.3243 60.6894 38.9697 59.0914 40.0824 57.1264C41.2188 55.1615 41.7869 53.0545 41.7869 50.8054C41.7869 47.5384 40.5322 44.733 38.0227 42.3892C35.5133 40.0218 31.9148 38.8381 27.2273 38.8381H10.9631V63.767ZM62.7642 73.9943V64.3352H67.1321C68.955 64.3352 70.4583 64.0275 71.642 63.4119C72.8494 62.7964 73.8319 61.9678 74.5895 60.9261C75.3707 59.8608 76.0218 58.7008 76.5426 57.446L77.5724 54.8537L52.0043 0.272725H63.652L82.7216 42.3182L99.696 0.272725H111.202L86.0597 60.3935C84.9943 62.8082 83.7633 65.0455 82.3665 67.1051C80.9934 69.1648 79.1586 70.8338 76.8622 72.1122C74.5658 73.367 71.5237 73.9943 67.7358 73.9943H62.7642ZM108.076 90.5781V63.696H112.87C114.503 62.3229 116.03 60.3698 117.451 57.8366C118.871 55.3035 120.078 51.8826 121.073 47.5739C122.067 43.2652 122.754 37.7372 123.132 30.9901L124.837 0.272725H169.688V63.696H177.926V90.4716H167.415V73H118.587V90.5781H108.076ZM125.796 63.696H159.176V9.71875H134.78L133.644 30.9901C133.336 36.1274 132.827 40.7438 132.117 44.8395C131.43 48.9351 130.542 52.5573 129.453 55.706C128.388 58.831 127.169 61.4943 125.796 63.696ZM181.947 73V0.272725H227.544V9.71875H192.92V31.8778H225.164V41.2884H192.92V63.554H227.97V73H181.947ZM230.614 9.71875V0.272725H286.9V9.71875H264.208V73H253.271V9.71875H230.614Z" fill="white"/>
</g>
</svg>
