<svg width="1300.000000" height="188.000000" viewBox="0 0 1300 188" fill="none" xmlns="http://www.w3.org/2000/svg" xmlns:xlink="http://www.w3.org/1999/xlink">
	<desc>
			Created with Pixso.
	</desc>
	<defs/>
	<g style="mix-blend-mode:difference">
		<path id="работает" d="M665.44 94C665.44 101.72 664.66 109.45 662.83 116.93C661.27 124.66 658.92 131.89 655.53 138.88C652.14 145.86 648.23 152.34 643.28 158.32C638.32 164.31 632.32 169.54 625.54 173.78C618.76 178.27 611.2 181.76 602.59 184.26C593.99 186.75 584.6 188 574.17 188C564 188 554.35 186.75 545.75 184.26C537.4 181.76 529.58 178.27 522.8 173.78C516.28 169.54 510.28 164.31 505.33 158.32C500.11 152.34 495.94 145.86 492.81 138.88C489.42 131.89 487.07 124.66 485.25 116.93C483.68 109.45 482.9 101.72 482.9 94C482.9 80.03 484.99 67.57 489.16 55.85C493.33 44.38 499.33 34.4 506.89 26.18C514.71 17.95 524.36 11.46 535.58 6.98C547.05 2.24 559.83 0 574.17 0C588.51 0 601.55 2.24 612.77 6.98C624.24 11.46 633.63 17.95 641.45 26.18C649.27 34.4 655.01 44.38 659.18 55.85C663.35 67.57 665.44 80.03 665.44 94ZM249.29 1.74L317.35 183.51L289.45 183.51L269.63 128.65L196.09 128.65L175.23 183.51L148.89 183.51L219.04 1.74L249.29 1.74ZM919.34 1.74L987.4 183.51L959.5 183.51L939.68 128.65L866.14 128.65L845.28 183.51L818.94 183.51L889.09 1.74L919.34 1.74ZM78.75 4.48C89.18 4.48 98.04 5.73 105.61 8.22C112.91 10.97 119.17 14.46 124.12 18.94C129.08 23.43 132.73 28.92 135.08 35.4C137.68 41.88 138.73 48.87 138.73 56.84C138.73 64.82 137.68 71.8 135.08 78.29C132.73 84.77 129.08 90.25 124.12 94.74C119.17 99.48 112.91 102.97 105.61 105.47C98.04 107.96 89.18 109.2 78.75 109.2L25.03 109.2L25.03 183.51L0 183.51L0 4.48L78.75 4.48ZM457.84 25.43L354.83 25.43L354.83 78.29L406.99 78.29C417.94 78.29 427.59 79.53 435.41 82.03C443.5 84.52 450.28 88.01 455.75 92.5C460.97 96.99 464.88 102.47 467.75 108.96C470.1 115.44 471.4 122.67 471.4 130.9C471.4 138.88 470.1 146.11 467.49 152.34C464.88 158.82 460.97 164.56 456.01 169.05C451.06 173.53 444.8 177.27 437.5 179.77C429.94 182.26 421.59 183.51 412.2 183.51L329.8 183.51L329.8 4.48L457.84 4.48L457.84 25.43ZM821.2 25.43L757.58 25.43L757.58 183.51L732.54 183.51L732.54 25.43L668.91 25.43L668.91 4.48L821.2 4.48L821.2 25.43ZM1136.5 25.43L1024.89 25.43L1024.89 80.78L1127.89 80.78L1127.89 101.72L1024.89 101.72L1024.89 162.56L1138.31 162.56L1138.31 183.51L999.85 183.51L999.85 4.48L1136.5 4.48L1136.5 25.43ZM1300 25.43L1236.37 25.43L1236.37 183.51L1211.34 183.51L1211.34 25.43L1147.71 25.43L1147.71 4.48L1300 4.48L1300 25.43ZM640.41 94C640.41 83.52 638.84 73.55 635.97 64.57C633.11 55.6 628.67 47.87 623.2 41.39C617.46 34.9 610.42 29.92 602.33 26.42C593.99 22.68 584.6 20.94 574.17 20.94C563.74 20.94 554.35 22.68 546.01 26.42C537.92 29.92 530.88 34.9 525.41 41.39C519.67 47.87 515.24 55.6 512.37 64.57C509.5 73.55 507.94 83.52 507.94 94C507.94 104.97 509.24 114.94 511.85 123.67C514.71 132.64 518.89 140.37 524.36 146.85C529.84 153.34 536.88 158.08 544.96 161.82C553.31 165.31 562.96 167.05 574.17 167.05C585.38 167.05 595.03 165.31 603.38 161.82C611.72 158.08 618.76 153.34 624.24 146.85C629.71 140.37 633.63 132.64 636.23 123.67C639.1 114.94 640.41 104.97 640.41 94ZM76.14 88.26C89.44 88.26 99.09 85.52 104.83 80.28C110.82 74.8 113.69 67.07 113.69 56.84C113.69 46.62 110.82 38.89 104.83 33.41C99.09 28.17 89.44 25.43 76.14 25.43L25.03 25.43L25.03 88.26L76.14 88.26ZM202.61 109.7L262.59 109.7L234.17 30.16L202.61 109.7ZM872.66 109.7L932.64 109.7L904.22 30.16L872.66 109.7ZM408.81 162.56C414.03 162.56 418.72 162.06 423.16 161.07C427.59 159.82 431.24 158.08 434.63 155.58C437.76 153.09 440.37 149.85 442.19 145.86C444.02 141.87 444.8 136.88 444.8 130.9C444.8 124.91 444.02 119.93 441.93 115.94C440.11 111.95 437.24 108.71 433.85 105.96C430.2 103.72 425.76 101.97 420.81 100.73C415.59 99.73 409.86 99.23 403.34 99.23L354.83 99.23L354.83 162.56L408.81 162.56Z" fill="#FFFFFF" fill-opacity="1.000000" fill-rule="evenodd"/>
	</g>
</svg>
