<svg width="326.881836" height="74.926758" viewBox="0 0 326.882 74.9268" fill="none" xmlns="http://www.w3.org/2000/svg" xmlns:xlink="http://www.w3.org/1999/xlink">
	<desc>
			Created with Pixso.
	</desc>
	<defs/>
	<path id="Playfull and Practic" d="M122.55 0C141.37 0 155.29 14.11 155.29 37.37C155.29 60.62 141.37 74.73 122.55 74.73C103.65 74.73 89.76 60.59 89.76 37.37C89.76 14.11 103.65 0 122.55 0ZM325.88 20.11L315.31 20.11C314.52 13.4 308.59 9.49 300.24 9.49C291.31 9.49 285.64 14.06 285.64 20.23C285.62 27.22 293.19 29.88 298.87 31.32L305.95 33.17C315.21 35.44 326.88 40.52 326.88 53.63C326.88 65.94 317.04 74.92 299.97 74.92C283.66 74.92 273.48 66.79 272.75 53.63L283.76 53.63C284.42 61.54 291.45 65.3 299.9 65.3C309.23 65.3 316.01 60.62 316.01 53.51C316.01 47.07 310.01 44.5 302.24 42.45L293.65 40.11C281.96 36.93 274.7 31 274.7 20.89C274.7 8.34 285.91 0 300.49 0C315.28 0 325.56 8.47 325.88 20.11ZM31.25 73.73L20.19 73.73L0 1L11.54 1L25.7 57.32L26.39 57.32L41.13 1L52.56 1L67.3 57.34L67.96 57.34L82.1 1L93.67 1L73.48 73.73L62.42 73.73L47.14 19.26L46.55 19.26L31.25 73.73ZM171.9 73.73L160.92 73.73L160.92 1L186.84 1C203.71 1 212.01 10.42 212.01 23.8C212.01 33.56 207.6 40.99 198.66 44.28L214.8 73.73L202.3 73.73L187.53 46.21L171.9 46.21L171.9 73.73ZM228.39 73.73L217.4 73.73L217.4 1L228.39 1L228.39 35.74L229.27 35.74L259.79 1L273.58 1L244.26 33.74L273.7 73.73L260.49 73.73L236.98 41.23L228.39 51.09L228.39 73.73ZM122.55 64.72C135.05 64.72 144.42 55.07 144.42 37.37C144.42 19.65 135.05 10.03 122.55 10.03C110 10.03 100.67 19.65 100.67 37.37C100.67 55.07 110 64.72 122.55 64.72ZM171.9 10.42L171.9 36.76L185.82 36.76C196.51 36.76 200.98 32 200.98 23.8C200.98 15.55 196.51 10.42 185.67 10.42L171.9 10.42Z" fill="#FFFFFF" fill-opacity="1.000000" fill-rule="evenodd"/>
</svg>
